<?xml version="1.0" standalone="no"?>
<!DOCTYPE svg PUBLIC "-//W3C//DTD SVG 20010904//EN"
 "http://www.w3.org/TR/2001/REC-SVG-20010904/DTD/svg10.dtd">
<svg version="1.0" xmlns="http://www.w3.org/2000/svg"
 width="576.000000pt" height="576.000000pt" viewBox="0 0 576.000000 576.000000"
 preserveAspectRatio="xMidYMid meet">

<g transform="translate(0.000000,576.000000) scale(0.100000,-0.100000)"
fill="#000000" stroke="none">
<path d="M2355 5718 c-66 -100 -130 -178 -146 -178 -12 0 -16 -6 -12 -20 4
-14 -12 -48 -51 -105 -31 -47 -56 -88 -56 -91 0 -4 -15 -27 -33 -53 -39 -53
-87 -151 -87 -174 0 -10 -8 -17 -17 -18 -11 0 -13 -3 -5 -6 17 -7 15 -51 -3
-69 -8 -8 -12 -21 -9 -28 3 -8 1 -17 -5 -21 -6 -3 -11 -13 -11 -22 0 -9 -8
-21 -17 -28 -16 -12 -14 -16 20 -48 20 -20 39 -32 42 -27 4 6 33 10 65 10 l60
0 -6 -30 c-5 -25 -3 -30 12 -30 16 0 17 2 4 10 -13 9 -13 10 0 10 28 0 39 -15
45 -65 4 -37 3 -47 -6 -38 -6 6 -17 9 -25 6 -11 -4 -68 21 -84 37 -6 6 -46 24
-88 41 -19 6 -39 17 -45 23 -15 13 -110 47 -116 41 -11 -12 40 -47 153 -106
75 -38 122 -68 119 -75 -3 -9 3 -11 19 -8 23 5 23 5 3 -11 -20 -17 -19 -17 8
-11 16 4 27 2 27 -4 0 -5 -5 -10 -11 -10 -5 0 -7 -4 -4 -10 9 -14 -2 -12 -28
5 -43 28 -283 127 -327 135 -25 4 -76 19 -113 34 -78 30 -80 18 -4 -20 29 -15
68 -41 87 -58 20 -18 65 -50 100 -72 l64 -39 -167 -3 c-185 -3 -207 3 -290 73
-42 37 -184 112 -193 103 -6 -7 63 -80 121 -126 l40 -32 -140 6 c-163 7 -321
26 -492 60 -68 13 -126 24 -130 24 -5 0 26 -15 67 -34 127 -56 377 -185 407
-210 34 -29 156 -101 243 -144 64 -31 120 -74 120 -92 0 -18 -24 -22 -186 -25
-154 -3 -201 -11 -181 -32 12 -11 105 -21 202 -22 52 -1 106 -7 130 -16 22 -8
58 -19 80 -25 34 -8 46 -19 78 -71 20 -33 37 -64 37 -69 0 -10 -18 -16 -89
-30 -30 -6 -66 -18 -80 -27 -25 -16 -25 -16 -3 -24 12 -4 47 -4 79 1 32 6 77
10 100 10 39 0 45 -4 69 -40 24 -36 25 -43 14 -72 -39 -100 -70 -168 -76 -168
-3 0 -2 5 2 12 5 7 2 9 -8 5 -10 -3 -29 9 -54 34 -38 39 -64 50 -64 26 0 -7
23 -37 50 -67 51 -55 56 -65 42 -88 -7 -9 -18 -5 -46 18 -34 27 -56 31 -56 12
0 -4 15 -24 34 -45 30 -34 33 -41 25 -75 -4 -20 -9 -39 -10 -42 -1 -3 -8 -21
-16 -40 -7 -19 -18 -43 -23 -52 -6 -10 -10 -26 -10 -36 0 -10 -4 -22 -8 -28
-5 -5 -19 -43 -32 -84 -13 -41 -26 -77 -30 -80 -10 -8 -23 -44 -22 -60 3 -31
-46 -155 -63 -158 -12 -3 -15 -10 -11 -27 3 -13 1 -27 -5 -30 -5 -4 -9 -17 -8
-28 0 -12 0 -38 -1 -57 -1 -29 -3 -32 -10 -15 -8 19 -9 19 -9 -2 -1 -12 -7
-24 -13 -26 -10 -4 -10 -7 0 -15 20 -14 3 -42 -27 -43 l-26 -1 25 -7 25 -7
-27 -18 c-15 -10 -26 -22 -23 -26 8 -12 -26 -21 -39 -11 -7 6 -31 12 -54 13
-48 3 -54 20 -20 48 16 13 27 15 35 8 14 -11 43 -4 43 10 0 11 -35 52 -44 52
-3 0 -6 -10 -6 -22 0 -22 -1 -22 -18 3 -13 20 -24 26 -44 23 -36 -3 -40 6 -29
55 5 23 5 43 0 46 -10 7 -2 163 12 255 6 36 12 94 14 130 4 78 23 208 32 222
3 6 7 25 8 42 6 69 17 161 21 167 2 4 -3 12 -10 18 -21 17 -25 6 -52 -147 -49
-270 -55 -308 -61 -419 -3 -62 -10 -113 -15 -113 -4 0 -8 -39 -9 -87 -1 -58
-4 -79 -9 -63 -5 18 -8 7 -8 -39 0 -35 -5 -68 -11 -74 -6 -6 -11 -18 -11 -26
0 -14 1 -14 10 -1 8 13 10 13 10 -1 0 -11 -12 -18 -40 -23 -22 -3 -40 -11 -40
-16 0 -14 -49 -12 -95 5 -27 9 -83 14 -167 15 l-128 0 0 70 c0 76 -17 97 -22
28 -3 -44 -20 -55 -26 -17 -2 12 1 19 6 15 14 -8 21 95 8 116 -6 9 -19 18 -31
20 -16 2 -20 10 -20 38 0 19 -3 40 -7 45 -19 30 -29 393 -17 615 8 144 22 311
38 450 23 203 42 357 47 378 3 15 1 21 -6 17 -5 -3 -10 -21 -10 -38 0 -18 -7
-70 -15 -117 -16 -89 -49 -393 -65 -590 -12 -151 -13 -780 -1 -906 6 -55 13
-148 16 -209 3 -60 9 -146 12 -190 6 -85 6 -126 -1 -133 -3 -2 -13 -1 -23 2
-19 6 -83 88 -83 106 0 6 -7 10 -15 10 -10 0 -15 10 -15 29 0 40 -9 61 -27 61
-10 0 -14 7 -10 20 3 11 1 20 -4 20 -5 0 -9 7 -9 15 0 8 -8 15 -17 15 -14 0
-15 2 -5 9 12 7 11 14 -2 39 -9 17 -16 41 -16 54 0 19 -2 20 -11 8 -8 -12 -10
-9 -6 13 5 29 -14 57 -36 57 -7 0 -4 -5 5 -11 23 -13 23 -32 1 -25 -17 5 -18
-7 -17 -177 0 -100 6 -222 13 -272 7 -49 14 -101 16 -115 2 -14 4 -25 5 -25 1
0 3 -16 5 -35 2 -19 11 -75 19 -125 9 -49 18 -101 20 -115 2 -14 37 -144 79
-290 41 -146 85 -301 96 -345 43 -165 132 -427 216 -635 94 -233 223 -510 237
-510 5 0 2 12 -5 28 -51 100 -152 572 -197 912 -5 41 -14 109 -19 150 -18 141
-46 588 -36 578 4 -4 31 -76 60 -160 94 -273 193 -506 313 -733 78 -148 177
-313 197 -330 7 -5 27 -32 45 -60 55 -82 159 -215 233 -297 74 -81 108 -102
41 -24 -45 51 -139 253 -194 416 -49 145 -105 348 -125 445 -13 66 -31 152
-39 190 -9 39 -16 102 -16 140 0 126 46 453 115 830 66 358 270 1064 376 1303
l29 64 38 -31 c22 -16 45 -37 52 -46 7 -9 22 -21 33 -26 32 -18 9 12 -56 71
-50 46 -57 57 -52 79 4 14 10 30 14 34 5 5 39 -19 77 -52 37 -34 73 -61 78
-61 6 0 -22 33 -62 73 -39 40 -72 77 -72 82 0 6 19 55 42 109 47 112 34 113
117 -3 24 -33 48 -61 53 -61 5 0 8 4 6 8 -1 5 -25 61 -52 125 l-49 117 20 47
c20 50 45 63 52 28 4 -25 19 -35 54 -35 25 0 27 3 27 39 0 35 2 38 24 34 21
-4 23 -9 19 -51 -9 -101 -14 -107 -65 -71 -16 12 -31 19 -33 17 -2 -2 7 -30
21 -63 16 -39 23 -72 21 -95 -7 -57 -59 -250 -68 -250 -4 0 -16 10 -26 23 -10
13 -38 41 -63 62 -44 40 -44 40 -21 7 12 -18 38 -45 57 -60 19 -15 34 -35 34
-44 0 -9 5 -20 10 -23 19 -12 11 -38 -10 -32 -17 4 -18 3 -6 -17 15 -23 10
-86 -6 -86 -6 0 -7 -7 -4 -15 3 -9 -12 -136 -34 -282 -23 -146 -39 -271 -37
-277 6 -17 40 117 39 154 -1 33 11 126 39 297 l11 73 30 -18 c24 -14 28 -22
24 -42 -16 -73 -16 -75 0 -40 9 19 22 42 30 51 8 9 14 20 12 25 -4 17 13 54
26 54 8 0 11 10 8 32 -4 28 -3 30 17 25 18 -4 20 -3 11 8 -6 7 -8 25 -4 39 13
51 26 48 103 -23 44 -42 109 -89 167 -121 84 -46 94 -55 81 -67 -8 -8 -26 -16
-41 -16 -32 -2 -34 -13 -4 -20 14 -4 26 -1 31 8 11 21 76 19 131 -4 135 -59
302 -102 501 -132 71 -11 134 -24 139 -29 6 -6 4 -16 -5 -26 -12 -15 -10 -15
21 1 19 10 55 18 80 18 69 0 433 -24 449 -29 11 -3 10 -9 -5 -26 l-19 -21 35
19 c19 10 62 21 95 24 54 4 44 7 -102 23 -244 27 -694 104 -711 122 -6 6 -10
3 58 45 74 46 250 172 250 180 0 3 -21 16 -47 29 -45 22 -47 22 -69 4 -149
-121 -233 -178 -286 -195 -158 -49 -372 8 -520 138 -79 70 -98 93 -171 202
-51 76 -55 86 -45 112 14 41 28 38 60 -13 15 -23 55 -72 90 -108 35 -36 54
-54 42 -40 -51 64 -118 159 -132 187 -18 38 -13 61 30 134 l31 55 25 -74 c27
-81 80 -182 100 -189 6 -2 -4 27 -23 65 -38 75 -78 217 -70 244 3 9 12 19 19
22 18 7 96 -13 96 -24 0 -5 8 -9 18 -9 38 0 47 -17 52 -97 5 -71 7 -78 27 -81
18 -3 27 6 46 45 25 54 36 57 133 31 67 -17 87 -34 79 -66 -7 -28 -52 -96 -97
-148 -17 -19 -26 -34 -21 -34 11 0 103 95 143 148 l25 32 50 -15 c27 -8 54
-20 59 -25 6 -6 19 -10 30 -10 24 0 126 -48 126 -59 0 -5 -14 -25 -30 -46 -57
-72 -10 -54 63 24 26 28 51 51 55 51 4 0 33 -26 65 -58 43 -44 55 -62 51 -79
-5 -18 1 -23 49 -37 30 -9 59 -16 64 -16 18 0 122 101 153 150 18 27 36 50 40
50 5 0 39 -33 76 -72 71 -78 77 -73 19 18 -20 31 -35 57 -33 59 2 2 43 -13 91
-33 l89 -37 126 -149 c70 -82 137 -161 149 -175 41 -50 32 -14 -14 55 -63 94
-135 215 -130 220 2 3 27 0 54 -6 50 -11 167 -72 325 -171 155 -96 208 -139
226 -184 14 -35 17 -37 22 -18 5 21 7 21 75 -21 39 -24 89 -61 112 -82 l42
-39 6 -100 c3 -55 8 -191 10 -302 3 -112 9 -211 13 -222 4 -11 6 124 4 300 -2
175 0 319 5 319 4 0 22 -9 38 -20 50 -33 53 -22 5 19 l-45 39 -3 208 c-2 184
-1 207 12 190 27 -34 37 -12 10 25 -19 28 -25 46 -22 79 l3 42 77 -51 c58 -37
79 -57 84 -78 3 -15 12 -53 19 -83 8 -30 19 -91 25 -135 14 -97 82 -435 105
-524 9 -35 15 -75 12 -88 -4 -21 5 -15 55 33 48 49 55 60 39 62 -10 2 -21 12
-24 23 -3 10 -12 19 -20 19 -8 0 -17 11 -19 25 -3 13 -1 22 3 19 5 -3 9 2 9
10 0 9 -3 16 -8 16 -16 0 -35 66 -34 124 l0 61 -12 -45 c-7 -25 -9 -52 -5 -60
4 -9 6 -30 5 -48 -1 -17 2 -33 7 -35 6 -2 8 -10 5 -17 -9 -27 -27 23 -29 81
-2 30 -6 59 -10 64 -4 6 -9 35 -12 65 -3 30 -10 71 -15 90 -19 65 -32 135 -36
195 -4 63 -20 181 -38 275 -21 113 -39 273 -40 360 -1 47 3 62 17 57 8 -4 17
-2 21 4 4 6 15 4 30 -6 19 -12 15 -4 -16 37 -42 56 -50 85 -25 94 12 5 11 9
-7 24 -18 14 -20 20 -10 33 10 11 9 17 -2 26 -8 7 -18 38 -21 69 -4 31 -11 73
-16 93 -8 33 -38 252 -60 434 -5 46 -6 0 -3 -130 2 -110 6 -216 9 -235 2 -19
6 -75 10 -124 l5 -89 -32 7 c-18 3 -36 10 -40 14 -8 8 5 451 19 652 8 99 8
102 14 50 4 -30 5 139 3 375 -2 237 -4 438 -4 448 0 16 -5 17 -32 11 -36 -7
-57 -29 -58 -59 0 -11 -7 -39 -15 -62 -60 -172 -95 -546 -95 -1020 0 -231 -3
-344 -11 -348 -7 -5 -5 -13 6 -25 19 -21 13 -40 -13 -41 -13 0 -12 -2 4 -9 15
-6 27 -30 44 -86 12 -43 36 -100 51 -126 25 -41 31 -66 39 -161 5 -62 7 -133
4 -159 -6 -47 -7 -47 -33 -34 -14 7 -39 16 -56 20 -29 7 -29 7 13 -29 23 -20
42 -42 42 -48 0 -8 -4 -7 -12 1 -7 7 -20 12 -30 12 -19 0 -17 -4 47 -95 26
-37 42 -280 24 -368 -11 -52 -14 -57 -33 -51 -26 9 -136 108 -196 178 -45 51
-93 167 -76 183 3 4 22 -1 42 -10 45 -22 36 -7 -22 34 -27 20 -48 44 -53 63
-5 17 -10 23 -10 14 -1 -26 -13 -23 -80 22 -33 22 -71 45 -85 52 -36 16 -32
28 8 28 18 0 54 3 79 6 43 6 47 5 56 -17 8 -21 10 -21 9 -4 0 11 -3 31 -7 45
-6 22 -8 23 -14 6 -7 -17 -15 -18 -85 -12 -214 19 -303 45 -642 184 -416 172
-743 320 -930 421 -85 46 -157 86 -159 87 -6 5 68 110 218 307 75 97 148 193
162 212 15 19 41 51 58 71 l32 36 98 -66 c54 -36 101 -66 104 -66 4 0 30 -15
59 -33 74 -47 168 -99 168 -94 0 3 -42 30 -92 61 -109 65 -134 84 -126 92 4 3
15 1 26 -5 77 -41 -16 32 -125 100 -40 24 -73 49 -73 56 0 11 42 65 180 228
32 39 135 159 227 269 92 109 176 209 186 222 l19 24 -200 0 -200 0 -74 -91
c-40 -51 -113 -144 -161 -208 -188 -248 -222 -291 -236 -291 -7 0 -30 9 -50
21 l-36 21 39 -35 39 -35 -81 -113 c-44 -63 -89 -123 -99 -134 -10 -11 -31
-45 -47 -75 -16 -30 -37 -64 -46 -75 -50 -59 -70 -126 -61 -205 5 -36 9 -55
10 -42 0 12 8 22 16 22 8 0 15 4 15 9 0 6 18 9 40 8 22 -1 40 -5 40 -9 0 -4
-4 -8 -10 -8 -5 0 -10 -9 -10 -21 0 -11 -4 -17 -10 -14 -6 3 -7 -1 -4 -9 3 -9
10 -16 15 -16 15 0 10 -30 -6 -36 -8 -4 -13 -10 -10 -14 3 -4 -2 -13 -10 -20
-12 -10 -21 -10 -45 0 -27 11 -29 14 -16 29 12 14 11 19 -14 41 -16 14 -34 26
-42 28 -7 2 -20 10 -29 18 -8 7 -31 17 -49 21 l-35 6 17 -24 c15 -24 15 -25
-14 -27 -39 -3 -108 36 -108 61 0 14 -3 17 -12 9 -9 -7 -23 -6 -45 3 -36 15
-38 18 -23 46 14 26 36 24 65 -5 13 -13 28 -20 34 -17 13 9 3 22 -34 43 -16 9
-31 23 -33 30 -1 8 25 63 59 124 34 60 74 132 89 159 27 48 197 324 220 355 7
10 12 11 16 4 3 -7 13 -10 23 -7 13 3 17 11 13 29 -2 14 -9 21 -16 18 -6 -4 1
4 16 17 14 13 56 80 93 149 37 69 70 130 74 135 4 6 22 36 40 68 l32 57 -224
0 -224 0 -28 -42z m46 -1266 c-7 -2 -18 1 -23 6 -8 8 -4 9 13 5 13 -4 18 -8
10 -11z m-626 -159 c3 -32 11 -96 18 -143 16 -121 15 -176 -5 -196 -15 -15
-16 -15 -22 2 -8 29 -34 182 -41 249 -3 33 -8 79 -11 103 -5 41 -5 42 25 42
29 0 30 -2 36 -57z m404 13 c7 -8 59 -42 117 -76 l104 -60 -14 -29 c-8 -15
-39 -63 -68 -107 -53 -79 -53 -79 -56 -46 -2 19 1 47 7 64 14 40 14 48 -2 48
-24 0 -47 -68 -54 -158 -6 -84 -26 -142 -66 -196 -12 -17 -15 -15 -35 33 -28
63 -38 118 -47 246 -6 90 -4 107 18 170 14 39 30 82 37 98 14 29 41 35 59 13z
m2714 -196 c5 -4 17 -94 27 -201 10 -107 26 -243 35 -302 9 -60 15 -113 13
-119 -2 -5 -38 13 -81 41 l-77 51 0 275 0 276 38 -7 c20 -3 41 -10 45 -14z
m-2819 -357 c14 -37 24 -77 21 -88 -2 -11 -4 -23 -4 -27 -1 -5 -6 -8 -12 -8
-11 0 -99 178 -99 201 0 8 10 43 22 78 l23 63 11 -75 c7 -42 24 -107 38 -144z
m-119 -115 c4 -11 21 -43 37 -71 37 -64 31 -90 -13 -53 -38 33 -53 33 -45 2 4
-17 1 -26 -10 -30 -40 -15 -41 -11 -17 97 17 77 35 98 48 55z m2462 -176 c22
-13 43 -66 43 -106 0 -16 -2 -17 -16 -5 -24 20 -104 126 -104 138 0 11 36 -1
77 -27z m-2308 -49 c28 -42 50 -78 48 -79 -6 -7 -137 108 -137 120 0 13 20 36
31 36 4 0 30 -34 58 -77z m-149 7 c0 -5 -4 -10 -10 -10 -5 0 -10 5 -10 10 0 6
5 10 10 10 6 0 10 -4 10 -10z m-25 -78 c-2 -2 -14 5 -26 17 -13 12 -27 21 -31
21 -5 0 -7 4 -4 9 4 5 19 -3 36 -17 16 -14 28 -28 25 -30z m-46 -41 c-8 -2 -7
-6 2 -11 12 -8 23 -40 13 -40 -12 0 -39 39 -41 58 -3 20 -1 21 17 10 11 -7 15
-15 9 -17z"/>
<path d="M4243 5700 c0 -36 2 -50 4 -32 2 17 2 47 0 65 -2 17 -4 3 -4 -33z"/>
<path d="M4241 5574 c0 -11 3 -14 6 -6 3 7 2 16 -1 19 -3 4 -6 -2 -5 -13z"/>
<path d="M4230 5500 c0 -22 2 -40 4 -40 2 0 6 18 8 40 2 22 0 40 -4 40 -5 0
-8 -18 -8 -40z"/>
<path d="M2655 5257 c50 -35 75 -49 75 -44 0 9 -72 57 -85 57 -5 0 -1 -6 10
-13z"/>
<path d="M561 4874 c0 -11 3 -14 6 -6 3 7 2 16 -1 19 -3 4 -6 -2 -5 -13z"/>
<path d="M1345 4880 c-7 -11 -2 -14 70 -39 74 -26 93 -27 75 -5 -25 29 -134
62 -145 44z"/>
<path d="M545 4808 c-4 -24 -12 -51 -17 -61 -5 -11 -11 -49 -13 -85 l-2 -67
10 53 10 52 41 1 c37 0 39 1 17 10 -45 18 -49 25 -39 80 5 28 7 53 5 56 -3 2
-8 -15 -12 -39z"/>
<path d="M3330 4836 c0 -2 7 -7 16 -10 8 -3 12 -2 9 4 -6 10 -25 14 -25 6z"/>
<path d="M3370 4815 c0 -7 61 -37 66 -33 2 3 -12 12 -31 21 -19 9 -35 15 -35
12z"/>
<path d="M3487 4699 c7 -7 15 -10 18 -7 3 3 -2 9 -12 12 -14 6 -15 5 -6 -5z"/>
<path d="M3550 4667 c0 -9 162 -98 167 -93 3 3 -15 14 -39 27 -23 12 -62 33
-85 46 -24 14 -43 22 -43 20z"/>
<path d="M502 4570 c0 -14 2 -19 5 -12 2 6 2 18 0 25 -3 6 -5 1 -5 -13z"/>
<path d="M3817 4579 c7 -7 15 -10 18 -7 3 3 -2 9 -12 12 -14 6 -15 5 -6 -5z"/>
<path d="M3927 4529 c7 -7 15 -10 18 -7 3 3 -2 9 -12 12 -14 6 -15 5 -6 -5z"/>
<path d="M3810 4525 c0 -7 101 -57 106 -53 2 2 -21 16 -51 31 -30 15 -55 25
-55 22z"/>
<path d="M2428 4513 c7 -3 16 -2 19 1 4 3 -2 6 -13 5 -11 0 -14 -3 -6 -6z"/>
<path d="M2522 4465 c0 -16 2 -22 5 -12 2 9 2 23 0 30 -3 6 -5 -1 -5 -18z"/>
<path d="M3950 4458 c0 -7 281 -131 285 -126 3 2 -55 30 -128 62 -156 69 -157
69 -157 64z"/>
<path d="M4253 4403 c-9 -3 -8 -11 3 -29 11 -16 13 -28 7 -37 -7 -8 -5 -21 7
-40 16 -26 18 -27 23 -8 3 12 1 24 -5 27 -6 4 -8 21 -5 40 6 34 -8 55 -30 47z"/>
<path d="M4570 4210 c8 -5 22 -9 30 -9 10 0 8 3 -5 9 -27 12 -43 12 -25 0z"/>
<path d="M5685 4060 c-3 -5 1 -10 10 -10 9 0 13 5 10 10 -3 6 -8 10 -10 10 -2
0 -7 -4 -10 -10z"/>
<path d="M5685 4020 c-4 -6 -16 -10 -28 -11 -12 0 -16 -3 -9 -6 9 -3 10 -9 2
-18 -17 -20 36 -6 55 15 14 15 14 18 1 23 -9 4 -18 2 -21 -3z"/>
<path d="M5661 3806 c-8 -9 -8 -16 -2 -20 6 -4 15 3 21 14 12 23 -2 27 -19 6z"/>
<path d="M4367 3746 c-7 -19 16 -46 28 -32 7 8 5 16 -6 28 -13 12 -19 13 -22
4z"/>
<path d="M4586 3672 c5 -4 20 -17 34 -29 24 -21 26 -21 26 -4 0 13 -12 22 -35
30 -19 5 -30 7 -25 3z"/>
<path d="M2924 3435 c-10 -8 -14 -15 -8 -15 6 0 17 7 24 15 16 19 9 19 -16 0z"/>
<path d="M5616 3415 c-3 -9 -5 -31 -5 -48 1 -27 3 -24 9 13 8 48 6 61 -4 35z"/>
<path d="M2030 3305 c16 -19 142 -105 154 -105 17 0 -18 31 -84 75 -71 47 -91
56 -70 30z"/>
<path d="M5602 3285 c0 -16 2 -22 5 -12 2 9 2 23 0 30 -3 6 -5 -1 -5 -18z"/>
<path d="M2015 3250 c10 -16 63 -41 69 -32 3 5 -11 16 -30 25 -40 20 -48 21
-39 7z"/>
<path d="M5581 3154 c0 -11 3 -14 6 -6 3 7 2 16 -1 19 -3 4 -6 -2 -5 -13z"/>
<path d="M1853 3088 c-16 -35 -64 -190 -60 -195 2 -2 18 36 35 84 36 104 45
133 39 133 -2 0 -8 -10 -14 -22z"/>
<path d="M5566 3076 c-4 -21 -18 -56 -32 -77 -13 -22 -21 -39 -17 -38 15 1 84
92 75 98 -6 3 -12 17 -14 31 -3 21 -5 19 -12 -14z"/>
<path d="M991 2994 c0 -11 3 -14 6 -6 3 7 2 16 -1 19 -3 4 -6 -2 -5 -13z"/>
<path d="M5512 2855 c-23 -20 -39 -41 -36 -46 4 -6 13 -4 23 5 19 17 41 21 41
8 0 -4 -7 -34 -15 -65 -8 -32 -16 -80 -17 -108 -2 -45 -10 -61 -21 -41 -2 4
-2 0 1 -8 2 -8 7 -23 9 -32 3 -10 0 -18 -6 -18 -6 0 -11 9 -11 19 0 11 -5 23
-11 27 -9 5 -10 -1 -5 -20 5 -19 2 -28 -8 -32 -8 -3 -18 -19 -21 -35 -4 -16
-11 -31 -16 -34 -5 -4 -9 -11 -9 -16 0 -6 5 -7 10 -4 6 3 10 -3 10 -14 0 -11
-5 -23 -10 -26 -6 -4 -8 -11 -5 -16 4 -5 0 -12 -9 -15 -17 -6 -40 -61 -51
-119 -4 -22 -10 -42 -14 -45 -4 -3 -14 -23 -23 -45 -30 -76 -52 -55 -73 69 -6
34 -8 36 -19 20 -12 -15 -13 -11 -12 33 1 32 5 49 12 46 12 -5 8 129 -6 184
-5 21 -4 40 6 59 8 15 13 28 11 30 -5 5 -87 -56 -87 -65 0 -4 6 -13 13 -19 17
-18 22 -408 7 -652 -23 -386 -58 -606 -113 -718 -41 -83 -103 -177 -164 -249
-25 -29 -40 -53 -34 -53 20 0 252 146 616 387 28 18 103 78 168 133 l117 100
0 396 c0 284 -3 393 -11 388 -6 -3 -24 -27 -40 -52 -16 -25 -29 -44 -29 -41 0
2 -35 -29 -79 -71 -43 -41 -77 -78 -74 -82 4 -8 -11 -11 -23 -5 -3 1 -10 -6
-15 -15 -6 -10 -15 -18 -20 -18 -6 0 -30 -16 -54 -35 -24 -20 -46 -32 -49 -26
-3 5 6 53 20 108 76 293 133 524 139 568 3 28 13 86 21 130 9 45 14 100 12
124 l-3 42 -43 -36z m-302 -325 c0 -5 -2 -10 -4 -10 -3 0 -8 5 -11 10 -3 6 -1
10 4 10 6 0 11 -4 11 -10z m7 -42 c-3 -8 -6 -5 -6 6 -1 11 2 17 5 13 3 -3 4
-12 1 -19z"/>
<path d="M5510 2790 c0 -11 2 -20 4 -20 2 0 6 9 9 20 3 11 1 20 -4 20 -5 0 -9
-9 -9 -20z"/>
<path d="M863 2703 c9 -2 23 -2 30 0 6 3 -1 5 -18 5 -16 0 -22 -2 -12 -5z"/>
<path d="M608 2683 c6 -2 18 -2 25 0 6 3 1 5 -13 5 -14 0 -19 -2 -12 -5z"/>
<path d="M1212 2660 c0 -14 2 -19 5 -12 2 6 2 18 0 25 -3 6 -5 1 -5 -13z"/>
<path d="M4894 2368 l-29 -31 38 28 c38 28 44 35 29 35 -5 0 -21 -14 -38 -32z"/>
<path d="M4820 2309 c0 -5 5 -7 10 -4 6 3 10 8 10 11 0 2 -4 4 -10 4 -5 0 -10
-5 -10 -11z"/>
<path d="M2 550 c0 -14 2 -19 5 -12 2 6 2 18 0 25 -3 6 -5 1 -5 -13z"/>
</g>
</svg>
